ffmpeg started on 2025-06-07 at 15:58:44
Report written to "D:\Convert\FFMetrics\reports\psnr_report-6.txt"
Log level: 32
Command line:
ffmpeg -hide_banner -nostdin -i "G:\\\xc0\xed\xe8\xec\xe5\\\xce\xed\xe3\xee\xe8\xed\xe3\xe8\\!_36_\xce\xf1\xe5\xed\xfc_2024\\DreamCast\\\xd6\xe5\xeb\xe8\xf2\xe5\xeb\xfc, \xea\xee\xf2\xee\xf0\xee\xe3\xee \xe8\xf1\xea\xeb\xfe\xf7\xe8\xeb\xe8 \xe8\xe7 \xe3\xf0\xf3\xef\xef\xfb, \xee\xea\xe0\xe7\xe0\xeb\xf1\xff \xf1\xe8\xeb\xfc\xed\xe5\xe9\xf8\xe8\xec!\\[DC] sonochiyushi - 03_Telegram_HEVC.mkv" -i "G:\\\xc0\xed\xe8\xec\xe5\\\xce\xed\xe3\xee\xe8\xed\xe3\xe8\\!_36_\xce\xf1\xe5\xed\xfc_2024\\DreamCast\\\xd6\xe5\xeb\xe8\xf2\xe5\xeb\xfc, \xea\xee\xf2\xee\xf0\xee\xe3\xee \xe8\xf1\xea\xeb\xfe\xf7\xe8\xeb\xe8 \xe8\xe7 \xe3\xf0\xf3\xef\xef\xfb, \xee\xea\xe0\xe7\xe0\xeb\xf1\xff \xf1\xe8\xeb\xfc\xed\xe5\xe9\xf8\xe8\xec!\\[DC] sonochiyushi - 03_Telegram.mp4" -lavfi "[0:v]settb=AVTB,setpts=PTS-STARTPTS,format=pix_fmts=yuv420p10,fps=24000/1001,scale=1920:1080:flags=bicubic[main];[1:v]settb=AVTB,setpts=PTS-STARTPTS,format=pix_fmts=yuv420p,fps=24000/1001,scale=1920:1080:flags=bicubic[ref];[main][ref]psnr=eof_action=endall:stats_file='D\\:/Convert/FFMetrics/logs/psnr_logfile-6.txt'" -f null -
Input #0, matroska,webm, from 'G:\Аниме\Онгоинги\!_36_Осень_2024\DreamCast\Целитель, которого исключили из группы, оказался сильнейшим!\[DC] sonochiyushi - 03_Telegram_HEVC.mkv':
  Metadata:
    COMPATIBLE_BRANDS: isomiso2avc1mp41
    MAJOR_BRAND     : isom
    MINOR_VERSION   : 512
    ENCODER         : Lavf61.7.100
  Duration: 00:23:31.76, start: -0.021000, bitrate: 906 kb/s
  Stream #0:0: Video: hevc (Main 10), yuv420p10le(tv, bt709, progressive), 1920x1080 [SAR 1:1 DAR 16:9], 23.98 fps, 23.98 tbr, 1k tbn (default)
      Metadata:
        HANDLER_NAME    : VideoHandler
        VENDOR_ID       : [0][0][0][0]
        ENCODER         : Lavc61.19.100 libx265
        BPS             : 709707
        DURATION        : 00:23:30.575708333
        NUMBER_OF_FRAMES: 33820
        NUMBER_OF_BYTES : 125136990
        _STATISTICS_WRITING_APP: mkvpropedit v66.0.0 ('Josie') 64-bit
        _STATISTICS_WRITING_DATE_UTC: 2025-06-05 07:38:00
        _STATISTICS_TAGS: BPS DURATION NUMBER_OF_FRAMES NUMBER_OF_BYTES
  Stream #0:1: Audio: aac (LC), 48000 Hz, stereo, fltp (default)
      Metadata:
        HANDLER_NAME    : SoundHandler
        VENDOR_ID       : [0][0][0][0]
        ENCODER         : Lavc61.19.100 aac
        BPS             : 192916
        DURATION        : 00:23:31.754000000
        NUMBER_OF_FRAMES: 66177
        NUMBER_OF_BYTES : 34043849
        _STATISTICS_WRITING_APP: mkvpropedit v66.0.0 ('Josie') 64-bit
        _STATISTICS_WRITING_DATE_UTC: 2025-06-05 07:38:00
        _STATISTICS_TAGS: BPS DURATION NUMBER_OF_FRAMES NUMBER_OF_BYTES
Input #1, mov,mp4,m4a,3gp,3g2,mj2, from 'G:\Аниме\Онгоинги\!_36_Осень_2024\DreamCast\Целитель, которого исключили из группы, оказался сильнейшим!\[DC] sonochiyushi - 03_Telegram.mp4':
  Metadata:
    major_brand     : isom
    minor_version   : 512
    compatible_brands: isomiso2avc1mp41
    encoder         : Lavf61.1.100
  Duration: 00:23:31.70, start: 0.000000, bitrate: 3090 kb/s
  Stream #1:0[0x1](und): Video: h264 (High) (avc1 / 0x31637661), yuv420p(tv, bt709, progressive), 1920x1080 [SAR 1:1 DAR 16:9], 2945 kb/s, 23.98 fps, 23.98 tbr, 24k tbn (default)
      Metadata:
        handler_name    : VideoHandler
        vendor_id       : [0][0][0][0]
        encoder         : Lavc61.3.100 h264_qsv
  Stream #1:1[0x2](und): Audio: aac (HE-AACv2) (mp4a / 0x6134706D), 48000 Hz, stereo, fltp, 144 kb/s (default)
      Metadata:
        handler_name    : SoundHandler
        vendor_id       : [0][0][0][0]
Stream mapping:
  Stream #0:0 (hevc) -> settb:default
  Stream #1:0 (h264) -> settb:default
  psnr:default -> Stream #0:0 (wrapped_avframe)
  Stream #0:1 -> #0:1 (aac (native) -> pcm_s16le (native))
Output #0, null, to 'pipe:':
  Metadata:
    COMPATIBLE_BRANDS: isomiso2avc1mp41
    MAJOR_BRAND     : isom
    MINOR_VERSION   : 512
    encoder         : Lavf61.7.100
  Stream #0:0: Video: wrapped_avframe, yuv420p10le(tv, bt709, progressive), 1920x1080 [SAR 1:1 DAR 16:9], q=2-31, 200 kb/s, 23.98 fps, 23.98 tbn
      Metadata:
        encoder         : Lavc61.19.100 wrapped_avframe
  Stream #0:1: Audio: pcm_s16le, 48000 Hz, stereo, s16, 1536 kb/s (default)
      Metadata:
        HANDLER_NAME    : SoundHandler
        VENDOR_ID       : [0][0][0][0]
        _STATISTICS_TAGS: BPS DURATION NUMBER_OF_FRAMES NUMBER_OF_BYTES
        BPS             : 192916
        DURATION        : 00:23:31.754000000
        NUMBER_OF_FRAMES: 66177
        NUMBER_OF_BYTES : 34043849
        _STATISTICS_WRITING_APP: mkvpropedit v66.0.0 ('Josie') 64-bit
        _STATISTICS_WRITING_DATE_UTC: 2025-06-05 07:38:00
        encoder         : Lavc61.19.100 pcm_s16le
frame=  170 fps=0.0 q=-0.0 size=N/A time=00:00:07.09 bitrate=N/A speed=13.8x    frame=  435 fps=420 q=-0.0 size=N/A time=00:00:18.14 bitrate=N/A speed=17.5x    frame=  683 fps=438 q=-0.0 size=N/A time=00:00:28.48 bitrate=N/A speed=18.2x    frame=  929 fps=449 q=-0.0 size=N/A time=00:00:38.74 bitrate=N/A speed=18.7x    frame= 1196 fps=462 q=-0.0 size=N/A time=00:00:49.88 bitrate=N/A speed=19.3x    frame= 1460 fps=469 q=-0.0 size=N/A time=00:01:00.89 bitrate=N/A speed=19.6x    frame= 1703 fps=470 q=-0.0 size=N/A time=00:01:11.02 bitrate=N/A speed=19.6x    frame= 1989 fps=480 q=-0.0 size=N/A time=00:01:22.95 bitrate=N/A speed=  20x    frame= 2202 fps=473 q=-0.0 size=N/A time=00:01:31.84 bitrate=N/A speed=19.7x    frame= 2413 fps=466 q=-0.0 size=N/A time=00:01:40.64 bitrate=N/A speed=19.5x    frame= 2650 fps=466 q=-0.0 size=N/A time=00:01:50.52 bitrate=N/A speed=19.4x    frame= 2853 fps=461 q=-0.0 size=N/A time=00:01:58.99 bitrate=N/A speed=19.2x    frame= 3063 fps=456 q=-0.0 size=N/A time=00:02:07.75 bitrate=N/A speed=  19x    frame= 3245 fps=449 q=-0.0 size=N/A time=00:02:15.34 bitrate=N/A speed=18.7x    frame= 3441 fps=444 q=-0.0 size=N/A time=00:02:23.51 bitrate=N/A speed=18.5x    frame= 3637 fps=440 q=-0.0 size=N/A time=00:02:31.69 bitrate=N/A speed=18.4x    frame= 3828 fps=436 q=-0.0 size=N/A time=00:02:39.65 bitrate=N/A speed=18.2x    frame= 3992 fps=429 q=-0.0 size=N/A time=00:02:46.49 bitrate=N/A speed=17.9x    frame= 4209 fps=429 q=-0.0 size=N/A time=00:02:55.55 bitrate=N/A speed=17.9x    frame= 4427 fps=429 q=-0.0 size=N/A time=00:03:04.64 bitrate=N/A speed=17.9x    frame= 4674 fps=431 q=-0.0 size=N/A time=00:03:14.94 bitrate=N/A speed=  18x    frame= 4947 fps=436 q=-0.0 size=N/A time=00:03:26.33 bitrate=N/A speed=18.2x    frame= 5192 fps=438 q=-0.0 size=N/A time=00:03:36.54 bitrate=N/A speed=18.2x    frame= 5455 fps=440 q=-0.0 size=N/A time=00:03:47.51 bitrate=N/A speed=18.4x    frame= 5729 fps=444 q=-0.0 size=N/A time=00:03:58.94 bitrate=N/A speed=18.5x    frame= 5983 fps=446 q=-0.0 size=N/A time=00:04:09.54 bitrate=N/A speed=18.6x    frame= 6230 fps=447 q=-0.0 size=N/A time=00:04:19.84 bitrate=N/A speed=18.7x    frame= 6463 fps=447 q=-0.0 size=N/A time=00:04:29.56 bitrate=N/A speed=18.7x    frame= 6718 fps=449 q=-0.0 size=N/A time=00:04:40.19 bitrate=N/A speed=18.7x    frame= 6985 fps=451 q=-0.0 size=N/A time=00:04:51.33 bitrate=N/A speed=18.8x    frame= 7260 fps=454 q=-0.0 size=N/A time=00:05:02.80 bitrate=N/A speed=18.9x    frame= 7505 fps=455 q=-0.0 size=N/A time=00:05:13.02 bitrate=N/A speed=  19x    frame= 7748 fps=455 q=-0.0 size=N/A time=00:05:23.15 bitrate=N/A speed=  19x    frame= 7979 fps=455 q=-0.0 size=N/A time=00:05:32.79 bitrate=N/A speed=  19x    frame= 8251 fps=457 q=-0.0 size=N/A time=00:05:44.13 bitrate=N/A speed=19.1x    frame= 8514 fps=458 q=-0.0 size=N/A time=00:05:55.10 bitrate=N/A speed=19.1x    frame= 8788 fps=460 q=-0.0 size=N/A time=00:06:06.53 bitrate=N/A speed=19.2x    frame= 9012 fps=460 q=-0.0 size=N/A time=00:06:15.87 bitrate=N/A speed=19.2x    frame= 9274 fps=461 q=-0.0 size=N/A time=00:06:26.80 bitrate=N/A speed=19.2x    frame= 9537 fps=462 q=-0.0 size=N/A time=00:06:37.77 bitrate=N/A speed=19.3x    frame= 9793 fps=463 q=-0.0 size=N/A time=00:06:48.44 bitrate=N/A speed=19.3x    frame=10056 fps=464 q=-0.0 size=N/A time=00:06:59.41 bitrate=N/A speed=19.3x    frame=10300 fps=464 q=-0.0 size=N/A time=00:07:09.59 bitrate=N/A speed=19.3x    frame=10550 fps=464 q=-0.0 size=N/A time=00:07:20.02 bitrate=N/A speed=19.4x    frame=10799 fps=465 q=-0.0 size=N/A time=00:07:30.40 bitrate=N/A speed=19.4x    frame=11056 fps=466 q=-0.0 size=N/A time=00:07:41.12 bitrate=N/A speed=19.4x    frame=11316 fps=466 q=-0.0 size=N/A time=00:07:51.97 bitrate=N/A speed=19.4x    frame=11532 fps=465 q=-0.0 size=N/A time=00:08:00.98 bitrate=N/A speed=19.4x    frame=11803 fps=467 q=-0.0 size=N/A time=00:08:12.28 bitrate=N/A speed=19.5x    frame=12048 fps=467 q=-0.0 size=N/A time=00:08:22.50 bitrate=N/A speed=19.5x    frame=12287 fps=467 q=-0.0 size=N/A time=00:08:32.47 bitrate=N/A speed=19.5x    frame=12497 fps=466 q=-0.0 size=N/A time=00:08:41.22 bitrate=N/A speed=19.4x    frame=12744 fps=466 q=-0.0 size=N/A time=00:08:51.53 bitrate=N/A speed=19.4x    frame=13001 fps=466 q=-0.0 size=N/A time=00:09:02.25 bitrate=N/A speed=19.5x    frame=13256 fps=467 q=-0.0 size=N/A time=00:09:12.88 bitrate=N/A speed=19.5x    frame=13507 fps=467 q=-0.0 size=N/A time=00:09:23.35 bitrate=N/A speed=19.5x    frame=13765 fps=468 q=-0.0 size=N/A time=00:09:34.11 bitrate=N/A speed=19.5x    frame=14025 fps=469 q=-0.0 size=N/A time=00:09:44.95 bitrate=N/A speed=19.5x    frame=14270 fps=469 q=-0.0 size=N/A time=00:09:55.17 bitrate=N/A speed=19.5x    frame=14510 fps=469 q=-0.0 size=N/A time=00:10:05.18 bitrate=N/A speed=19.5x    frame=14756 fps=469 q=-0.0 size=N/A time=00:10:15.44 bitrate=N/A speed=19.6x    frame=14976 fps=468 q=-0.0 size=N/A time=00:10:24.62 bitrate=N/A speed=19.5x    frame=15227 fps=468 q=-0.0 size=N/A time=00:10:35.09 bitrate=N/A speed=19.5x    frame=15472 fps=468 q=-0.0 size=N/A time=00:10:45.31 bitrate=N/A speed=19.5x    frame=15720 fps=469 q=-0.0 size=N/A time=00:10:55.65 bitrate=N/A speed=19.5x    frame=15978 fps=469 q=-0.0 size=N/A time=00:11:06.41 bitrate=N/A speed=19.6x    frame=16186 fps=468 q=-0.0 size=N/A time=00:11:15.09 bitrate=N/A speed=19.5x    frame=16426 fps=468 q=-0.0 size=N/A time=00:11:25.10 bitrate=N/A speed=19.5x    frame=16664 fps=468 q=-0.0 size=N/A time=00:11:35.02 bitrate=N/A speed=19.5x    frame=16920 fps=468 q=-0.0 size=N/A time=00:11:45.70 bitrate=N/A speed=19.5x    frame=17156 fps=468 q=-0.0 size=N/A time=00:11:55.54 bitrate=N/A speed=19.5x    frame=17422 fps=469 q=-0.0 size=N/A time=00:12:06.64 bitrate=N/A speed=19.5x    frame=17662 fps=469 q=-0.0 size=N/A time=00:12:16.65 bitrate=N/A speed=19.5x    frame=17907 fps=469 q=-0.0 size=N/A time=00:12:26.87 bitrate=N/A speed=19.6x    frame=18166 fps=469 q=-0.0 size=N/A time=00:12:37.67 bitrate=N/A speed=19.6x    frame=18421 fps=470 q=-0.0 size=N/A time=00:12:48.30 bitrate=N/A speed=19.6x    frame=18691 fps=470 q=-0.0 size=N/A time=00:12:59.57 bitrate=N/A speed=19.6x    frame=18936 fps=470 q=-0.0 size=N/A time=00:13:09.78 bitrate=N/A speed=19.6x    frame=19185 fps=470 q=-0.0 size=N/A time=00:13:20.17 bitrate=N/A speed=19.6x    frame=19430 fps=471 q=-0.0 size=N/A time=00:13:30.39 bitrate=N/A speed=19.6x    frame=19679 fps=471 q=-0.0 size=N/A time=00:13:40.77 bitrate=N/A speed=19.6x    frame=19907 fps=470 q=-0.0 size=N/A time=00:13:50.28 bitrate=N/A speed=19.6x    frame=20139 fps=470 q=-0.0 size=N/A time=00:13:59.96 bitrate=N/A speed=19.6x    frame=20406 fps=471 q=-0.0 size=N/A time=00:14:11.10 bitrate=N/A speed=19.6x    frame=20669 fps=471 q=-0.0 size=N/A time=00:14:22.06 bitrate=N/A speed=19.6x    frame=20934 fps=472 q=-0.0 size=N/A time=00:14:33.12 bitrate=N/A speed=19.7x    frame=21198 fps=472 q=-0.0 size=N/A time=00:14:44.13 bitrate=N/A speed=19.7x    frame=21452 fps=472 q=-0.0 size=N/A time=00:14:54.72 bitrate=N/A speed=19.7x    frame=21714 fps=473 q=-0.0 size=N/A time=00:15:05.65 bitrate=N/A speed=19.7x    frame=21967 fps=473 q=-0.0 size=N/A time=00:15:16.20 bitrate=N/A speed=19.7x    frame=22208 fps=473 q=-0.0 size=N/A time=00:15:26.25 bitrate=N/A speed=19.7x    frame=22459 fps=473 q=-0.0 size=N/A time=00:15:36.72 bitrate=N/A speed=19.7x    frame=22713 fps=473 q=-0.0 size=N/A time=00:15:47.32 bitrate=N/A speed=19.7x    frame=22961 fps=473 q=-0.0 size=N/A time=00:15:57.66 bitrate=N/A speed=19.7x    frame=23221 fps=474 q=-0.0 size=N/A time=00:16:08.50 bitrate=N/A speed=19.8x    frame=23486 fps=474 q=-0.0 size=N/A time=00:16:19.56 bitrate=N/A speed=19.8x    frame=23757 fps=475 q=-0.0 size=N/A time=00:16:30.86 bitrate=N/A speed=19.8x    frame=24015 fps=475 q=-0.0 size=N/A time=00:16:41.62 bitrate=N/A speed=19.8x    frame=24270 fps=475 q=-0.0 size=N/A time=00:16:52.26 bitrate=N/A speed=19.8x    frame=24532 fps=475 q=-0.0 size=N/A time=00:17:03.18 bitrate=N/A speed=19.8x    frame=24808 fps=476 q=-0.0 size=N/A time=00:17:14.70 bitrate=N/A speed=19.9x    frame=25039 fps=476 q=-0.0 size=N/A time=00:17:24.33 bitrate=N/A speed=19.8x    frame=25319 fps=476 q=-0.0 size=N/A time=00:17:36.01 bitrate=N/A speed=19.9x    frame=25575 fps=477 q=-0.0 size=N/A time=00:17:46.69 bitrate=N/A speed=19.9x    frame=25832 fps=477 q=-0.0 size=N/A time=00:17:57.40 bitrate=N/A speed=19.9x    frame=26083 fps=477 q=-0.0 size=N/A time=00:18:07.87 bitrate=N/A speed=19.9x    frame=26340 fps=477 q=-0.0 size=N/A time=00:18:18.59 bitrate=N/A speed=19.9x    frame=26573 fps=477 q=-0.0 size=N/A time=00:18:28.31 bitrate=N/A speed=19.9x    frame=26790 fps=476 q=-0.0 size=N/A time=00:18:37.36 bitrate=N/A speed=19.9x    frame=27063 fps=477 q=-0.0 size=N/A time=00:18:48.75 bitrate=N/A speed=19.9x    frame=27306 fps=477 q=-0.0 size=N/A time=00:18:58.88 bitrate=N/A speed=19.9x    frame=27565 fps=477 q=-0.0 size=N/A time=00:19:09.69 bitrate=N/A speed=19.9x    frame=27816 fps=477 q=-0.0 size=N/A time=00:19:20.15 bitrate=N/A speed=19.9x    frame=28060 fps=477 q=-0.0 size=N/A time=00:19:30.33 bitrate=N/A speed=19.9x    frame=28290 fps=477 q=-0.0 size=N/A time=00:19:39.92 bitrate=N/A speed=19.9x    frame=28543 fps=477 q=-0.0 size=N/A time=00:19:50.48 bitrate=N/A speed=19.9x    frame=28792 fps=477 q=-0.0 size=N/A time=00:20:00.86 bitrate=N/A speed=19.9x    frame=29058 fps=477 q=-0.0 size=N/A time=00:20:11.96 bitrate=N/A speed=19.9x    frame=29301 fps=477 q=-0.0 size=N/A time=00:20:22.09 bitrate=N/A speed=19.9x    frame=29566 fps=477 q=-0.0 size=N/A time=00:20:33.19 bitrate=N/A speed=19.9x    frame=29822 fps=478 q=-0.0 size=N/A time=00:20:43.82 bitrate=N/A speed=19.9x    frame=30083 fps=478 q=-0.0 size=N/A time=00:20:54.71 bitrate=N/A speed=19.9x    frame=30313 fps=478 q=-0.0 size=N/A time=00:21:04.30 bitrate=N/A speed=19.9x    frame=30550 fps=477 q=-0.0 size=N/A time=00:21:14.18 bitrate=N/A speed=19.9x    frame=30777 fps=477 q=-0.0 size=N/A time=00:21:23.65 bitrate=N/A speed=19.9x    frame=31004 fps=477 q=-0.0 size=N/A time=00:21:33.12 bitrate=N/A speed=19.9x    frame=31243 fps=477 q=-0.0 size=N/A time=00:21:43.09 bitrate=N/A speed=19.9x    frame=31491 fps=477 q=-0.0 size=N/A time=00:21:53.43 bitrate=N/A speed=19.9x    frame=31727 fps=477 q=-0.0 size=N/A time=00:22:03.28 bitrate=N/A speed=19.9x    frame=31959 fps=476 q=-0.0 size=N/A time=00:22:12.95 bitrate=N/A speed=19.9x    frame=32200 fps=476 q=-0.0 size=N/A time=00:22:23.00 bitrate=N/A speed=19.9x    frame=32451 fps=477 q=-0.0 size=N/A time=00:22:33.47 bitrate=N/A speed=19.9x    frame=32659 fps=476 q=-0.0 size=N/A time=00:22:42.15 bitrate=N/A speed=19.8x    frame=32869 fps=475 q=-0.0 size=N/A time=00:22:50.91 bitrate=N/A speed=19.8x    frame=33101 fps=475 q=-0.0 size=N/A time=00:23:00.58 bitrate=N/A speed=19.8x    frame=33292 fps=474 q=-0.0 size=N/A time=00:23:08.55 bitrate=N/A speed=19.8x    frame=33513 fps=474 q=-0.0 size=N/A time=00:23:17.77 bitrate=N/A speed=19.8x    frame=33775 fps=474 q=-0.0 size=N/A time=00:23:28.69 bitrate=N/A speed=19.8x    [Parsed_psnr_10 @ 000001802366cb00] PSNR y:48.872174 u:51.214832 v:51.481773 average:49.551315 min:43.019769 max:inf
[out#0/null @ 0000018023d0ba00] video:14532KiB audio:264708KiB subtitle:0KiB other streams:0KiB global headers:0KiB muxing overhead: unknown
frame=33820 fps=474 q=-0.0 Lsize=N/A time=00:23:30.57 bitrate=N/A speed=19.8x    
